<svg width="40" height="41" fill="none" xmlns="http://www.w3.org/2000/svg">
    <defs>
        <linearGradient id="a" x1="9.188" y1="4.278" x2="33.24" y2="35.544"
            gradientUnits="userSpaceOnUse">
            <stop stop-color="#F7941D" />
            <stop offset="0" stop-color="#F7941D" />
            <stop offset=".326" stop-color="#EC7C30" />
            <stop offset=".685" stop-color="#DA316A" />
            <stop offset="1" stop-color="#D01A7C" />
        </linearGradient>
    </defs>
    <path fill-rule="evenodd" clip-rule="evenodd"
        d="M18.393 4.044c-2.29.308-7.297 1.75-8.914 5.976-.585 1.528-.954 2.857-1.266 3.983-.768 2.765-1.195 4.304-3.644 4.55-2.757.278-3.712-2.36-3.579-3.273.071-.488 1.673-5.62 5.984-9.394 3.408-2.984 7.903-4.489 11.12-4.813 4.002-.402 9.647.45 14.175 4.06 2.04 1.628 7.01 5.814 7.655 14.521.644 8.708-5.682 19.646-17.62 20.933-9.969 1.076-16.266-5.052-18.582-8.451a5.996 5.996 0 0 0-.102-.145c-.24-.33-.438-.606-.18-1.28l.074-.202c.564-1.544 3.158-8.65 10.17-13.294 6.743-4.466 10.624-4.808 13.693-5.078.299-.027.589-.052.874-.081 3.216-.323 3.814-1.307 2.71-3.043-.827-1.302-5.905-5.639-12.568-4.969Zm8.37 26.616c3.172-.319 5.487-3.136 5.169-6.291-.318-3.156-3.147-5.455-6.32-5.136-3.171.32-5.485 3.136-5.168 6.291.318 3.156 3.147 5.455 6.32 5.136Z"
        fill="url(#a)" />
</svg>