<svg width="20" height="4" viewBox="0 0 20 4" fill="none" xmlns="http://www.w3.org/2000/svg">
<path d="M1.75703 0.828321C1.44662 0.828299 1.14894 0.951587 0.929462 1.17106C0.709987 1.39054 0.586699 1.68822 0.586721 1.99863C0.586743 2.30904 0.710073 2.60674 0.92958 2.82625C1.14909 3.04575 1.44679 3.16908 1.7572 3.16911C11.6583 3.15828 7.60032 3.15713 18.2416 3.17028C18.3955 3.17092 18.5479 3.14109 18.6902 3.08251C18.8325 3.02392 18.9618 2.93774 19.0706 2.82894C19.1794 2.72014 19.2655 2.59088 19.3241 2.4486C19.3827 2.30632 19.4125 2.15384 19.4119 1.99997C19.4125 1.84609 19.3827 1.69361 19.3241 1.55133C19.2655 1.40904 19.1793 1.27976 19.0705 1.17094C18.9616 1.06213 18.8324 0.975935 18.6901 0.917331C18.5478 0.858726 18.3953 0.828875 18.2414 0.829495C7.13791 0.841629 12.0589 0.841047 1.75703 0.828321Z" fill="white"/>
</svg>
